<svg width="480.06299999999993" height="480.06299999999993" xmlns="http://www.w3.org/2000/svg" enable-background="new 0 0 480.063 480.063" fill="#fff">

 <g>
  <title>Layer 1</title>
  <path id="svg_1" d="m402.032,424.806l0,47.257c0,4.418 -3.582,8 -8,8s-8,-3.582 -8,-8l0,-47.257c0,-36.795 -29.775,-66.572 -66.573,-66.571c-17.411,0 -32.48073,-8.50636 -42.259,-23.728c-9.77827,-15.22164 -1.103,-8.696 2.671,-10.994c3.773,-2.299 8.695,-1.103 10.994,2.671c6.122,10.051 16.811,16.051 28.594,16.051c45.637,-0.002 82.573,36.93 82.573,82.571zm-120.69691,-88.193c-16.059,12.317 6.29491,7.579 -25.02209,17.52c-31.317,9.941 -42.467,-0.005 -59.516,-11.642c-16.878,18.087 -39.176,15.744 -36.191,15.744c-36.795,-0.001 -66.573,29.773 -66.573,66.571l0,47.257c0,4.418 -3.582,8 -8,8s-8,-3.582 -8,-8l0,-47.257c0,-45.636 36.929,-82.571 82.571,-82.571c18.462,0 33.429,-14.875 33.429,-33.342l0,-2.107c-34.919,-16.697 -59.429,-51.784 -60.923,-92.643c-14.37,-3.455 -25.077,-16.317 -25.077,-31.62l0,-41.473c-0.437,-20.3 2.577,-71.143 39.648,-106.877c45.775,-44.126 119.183,-41.323 173.161,-15.338c5.261,2.535 6.06,9.643 1.691,13.324c27.345,6.67 50.925,23.48 66.074,47.538c0.782,1.239 2.214,3.184 1.84,6.287c-0.232,1.931 -0.807,3.565 -2.295,5.075c-9.75,9.888 -15.119,22.991 -15.119,36.896l0,54.57c0,4.418 -3.582,8 -8,8s-8,-3.582 -8,-8l0,-54.57c0,-16.037 5.479,-31.259 15.542,-43.487c-15.338,-21.936 -39.268,-36.044 -66.332,-38.942l-14.061,-1.506c-8.222,-0.88 -9.835,-12.207 -2.194,-15.352l6.395,-2.633c-83.286,-29.035 -172.351,3.226 -172.351,114.928l0,41.56c0,6.348 3.656,11.865 9,14.636l0,-51.863c0,-30.878 25.122,-56 56,-56l102,0c30.878,0 56,25.12 56,55.997l0,65.503c0,69.574 -67.988,122.42 -137.17,102.053c-0.45,5.708 -1.871,11.216 -4.186,16.336c13.458,9.242 30.453,12.97 47.23,9.314c4.317,-0.94 44.48809,-14.203 28.42909,-1.886zm-41.30309,-35.425c50.178,0 91,-40.822 91,-91l0,-64.895c0,-22.054 -17.944,-39.997 -40,-39.997l-102,0c-22.056,0 -40,17.944 -40,40l0,64.892c0,50.178 40.822,91 91,91zm81,137.875l-24,0c-4.418,0 -8,3.582 -8,8s3.582,8 8,8l24,0c4.418,0 8,-3.582 8,-8s-3.582,-8 -8,-8z"/>
  <path id="svg_2" d="m206.98804,405.18588l33.88152,3.50977" opacity="NaN" fill="#729C62"/>
 </g>
</svg>